<svg xmlns="http://www.w3.org/2000/svg"  viewBox="0 0 100 100" width="100px" height="100px"><path d="M 50 14 C 30.129581 14 14 30.129595 14 50 C 14 69.870405 30.129581 86 50 86 C 69.870419 86 86 69.870405 86 50 C 86 30.129595 69.870419 14 50 14 z M 50 16 C 68.78954 16 84 31.210473 84 50 C 84 68.789527 68.78954 84 50 84 C 31.21046 84 16 68.789527 16 50 C 16 31.210473 31.21046 16 50 16 z M 50 21 C 33.995577 21 21 33.995588 21 50 C 21 66.004412 33.995577 79 50 79 C 66.004423 79 79 66.004412 79 50 C 79 33.995588 66.004423 21 50 21 z M 49.345703 23.015625 L 43.869141 46.966797 L 26.216797 62.798828 C 24.165058 58.990729 23 54.633074 23 50 C 23 35.295884 34.726032 23.363553 49.345703 23.015625 z M 50.65625 23.015625 C 65.275013 23.36457 77 35.296539 77 50 C 77 54.661109 75.823001 59.044711 73.748047 62.869141 L 56.238281 46.96875 L 50.65625 23.015625 z M 50.5 26.744141 L 55.207031 46.955078 L 50.5 49.207031 L 50.5 41.5 A 0.50005 0.50005 0 0 0 49.992188 40.992188 A 0.50005 0.50005 0 0 0 49.5 41.5 L 49.5 49.201172 L 44.896484 46.957031 L 49.5 26.833984 L 49.5 36 A 0.50005 0.50005 0 1 0 50.5 36 L 50.5 26.744141 z M 55.699219 47.828125 L 70.669922 61.423828 L 66.751953 59.148438 A 0.50005 0.50005 0 0 0 66.464844 59.078125 A 0.50005 0.50005 0 0 0 66.248047 60.013672 L 69.613281 61.966797 L 50.5 55.992188 L 50.5 50.314453 L 55.699219 47.828125 z M 44.404297 47.830078 L 48.929688 50.035156 L 46.689453 51.316406 A 0.50005 0.50005 0 1 0 47.185547 52.183594 L 49.5 50.861328 L 49.5 55.990234 L 30.021484 61.992188 L 43.248047 54.433594 A 0.50005 0.50005 0 0 0 43.025391 53.496094 A 0.50005 0.50005 0 0 0 42.751953 53.566406 L 29.685547 61.03125 L 44.404297 47.830078 z M 55.464844 52.691406 A 0.50005 0.50005 0 0 0 55.248047 53.626953 L 62.998047 58.126953 A 0.50063738 0.50063738 0 1 0 63.501953 57.261719 L 55.751953 52.761719 A 0.50005 0.50005 0 0 0 55.464844 52.691406 z M 49.998047 56.882812 L 73.041016 64.087891 C 68.2978 71.834951 59.758615 77 50 77 C 40.203307 77 31.634273 71.795535 26.902344 63.998047 L 49.998047 56.882812 z"/></svg>