<svg xmlns="http://www.w3.org/2000/svg"  viewBox="0 0 100 100" width="100px" height="100px"><polygon fill="#b1bdd0" points="1,59.992 11.25,39.992 34,39.992 34,33.992 66,33.992 66,39.992 99,39.992 88.25,59.992 66,59.992 66,65.992 34,65.992 34,59.992"/><polygon fill="none" stroke="#1f212b" stroke-linecap="round" stroke-linejoin="round" stroke-miterlimit="10" stroke-width="2" points="1,59.992 11.25,39.992 34,39.992 34,33.992 66,33.992 66,39.992 99,39.992 88.25,59.992 66,59.992 66,65.992 34,65.992 34,59.992"/><path fill="#f9b621" d="M14.5,55.492l6-11h18l-0.01-6.01l23.521,0.003L62,43.994h25.16c0.276,0,0.46,0.286,0.345,0.537 L82.5,55.492h-21l0.01,6.01h-23.02l0.01-6.01H14.5z"/><polygon fill="#eddc67" points="14.5,54.494 19.25,45.744 21.5,43.994 38,43.994 38.489,38.482 50,38.482 50,61.502 38.489,61.502 38.5,55.492 14.75,55.494"/><polyline fill="none" stroke="#1f212b" stroke-linecap="round" stroke-linejoin="round" stroke-miterlimit="10" points="61.5,41.494 61.5,44.492 63.5,44.494"/><polyline fill="none" stroke="#1f212b" stroke-linecap="round" stroke-linejoin="round" stroke-miterlimit="10" points="30.5,44.492 38.5,44.492 38.489,38.482 61.51,38.482"/><polyline fill="none" stroke="#1f212b" stroke-linecap="round" stroke-linejoin="round" stroke-miterlimit="10" points="19.407,46.494 20.5,44.492 27.5,44.492"/><polyline fill="none" stroke="#1f212b" stroke-linecap="round" stroke-linejoin="round" stroke-miterlimit="10" points="80.5,44.492 87.5,44.492 82.5,55.492 61.5,55.492 61.51,61.502 38.489,61.502 38.5,55.492 14.5,55.492 18.25,48.616"/><line x1="66.5" x2="77.5" y1="44.494" y2="44.492" fill="none" stroke="#1f212b" stroke-linecap="round" stroke-linejoin="round" stroke-miterlimit="10"/></svg>