<svg xmlns="http://www.w3.org/2000/svg"  viewBox="0 0 50 50" width="100px" height="100px"><path d="M 25 7 C 20.617188 7.003906 16.34375 7.164063 12 7.75 C 9.691406 8.0625 7.21875 8.550781 5.5 10.28125 C 3.617188 12.175781 3.214844 14.96875 3.0625 17.53125 C 2.886719 20.503906 3.066406 23.472656 3.25 26.4375 C 3.433594 29.355469 3.730469 32.28125 4.4375 35.125 C 4.765625 36.441406 5.210938 37.773438 5.96875 38.90625 C 6.699219 39.996094 7.761719 40.769531 8.9375 41.3125 C 11.4375 42.464844 14.332031 42.550781 17.03125 42.71875 C 19.679688 42.882813 22.332031 42.984375 25 43 C 26.332031 42.992188 27.667969 42.953125 29 42.90625 C 30.332031 42.859375 31.644531 42.800781 32.96875 42.71875 C 35.667969 42.546875 38.5625 42.460938 41.0625 41.3125 C 41.652344 41.042969 42.21875 40.710938 42.71875 40.3125 C 43.21875 39.914063 43.667969 39.449219 44.03125 38.90625 C 44.789063 37.769531 45.234375 36.441406 45.5625 35.125 C 46.269531 32.285156 46.566406 29.355469 46.75 26.4375 C 46.886719 24.214844 47.023438 21.976563 47 19.75 C 46.992188 19.007813 46.980469 18.273438 46.9375 17.53125 C 46.898438 16.890625 46.835938 16.246094 46.75 15.59375 C 46.492188 13.636719 45.914063 11.703125 44.5 10.28125 C 42.78125 8.550781 40.308594 8.0625 38 7.75 C 33.65625 7.167969 29.382813 7.003906 25 7 Z M 25 11 C 28.519531 11.003906 31.449219 11.140625 34.15625 11.375 C 33.308594 14.589844 32.402344 18.363281 31.5625 21.375 C 30.792969 24.132813 29.902344 27.679688 26.5625 28.03125 C 26.066406 28.082031 25.535156 28.117188 25 28.125 C 24.464844 28.117188 23.9375 28.082031 23.4375 28.03125 C 20.097656 27.675781 19.207031 24.132813 18.4375 21.375 C 17.597656 18.363281 16.691406 14.589844 15.84375 11.375 C 18.550781 11.140625 21.480469 11.003906 25 11 Z M 11.65625 11.84375 C 11.699219 14.519531 11.855469 17.203125 11.96875 19.875 C 12.347656 26.082031 12.765625 32.265625 13.53125 38.4375 C 12.453125 38.292969 11.476563 38.078125 10.625 37.6875 C 10.007813 37.402344 9.5625 37.058594 9.3125 36.6875 C 8.933594 36.125 8.628906 35.308594 8.34375 34.15625 C 7.792969 31.941406 7.421875 29.414063 7.21875 26.1875 C 7.042969 23.324219 6.898438 20.503906 7.0625 17.75 C 7.167969 15.957031 7.394531 14.015625 8.3125 13.09375 C 8.964844 12.4375 10.144531 12.09375 11.65625 11.84375 Z M 38.34375 11.84375 C 39.859375 12.09375 41.035156 12.4375 41.6875 13.09375 C 42.605469 14.019531 42.832031 15.957031 42.9375 17.75 C 43.097656 20.496094 42.957031 23.320313 42.78125 26.1875 C 42.582031 29.417969 42.207031 31.9375 41.65625 34.15625 C 41.371094 35.308594 41.058594 36.128906 40.6875 36.6875 C 40.433594 37.066406 40.019531 37.375 39.40625 37.65625 C 38.554688 38.046875 37.542969 38.292969 36.46875 38.4375 C 37.234375 32.265625 37.652344 26.082031 38.03125 19.875 C 38.144531 17.203125 38.300781 14.519531 38.34375 11.84375 Z M 25 32.6875 C 25.785156 32.691406 26.570313 32.769531 27.25 32.90625 C 29.296875 33.308594 29.328125 33.472656 30.125 36.09375 C 30.125 36.09375 30.589844 37.570313 30.96875 38.8125 C 28.910156 38.914063 26.910156 38.988281 25.03125 39 C 23.121094 38.988281 21.097656 38.914063 19.03125 38.8125 C 19.410156 37.570313 19.875 36.09375 19.875 36.09375 C 20.671875 33.472656 20.703125 33.308594 22.75 32.90625 C 23.429688 32.769531 24.214844 32.691406 25 32.6875 Z"/></svg>